<?xml version="1.0" encoding="UTF-8" standalone="no"?>
<svg width="116px" height="116px" viewBox="0 0 116 116" version="1.1" xmlns="http://www.w3.org/2000/svg" xmlns:xlink="http://www.w3.org/1999/xlink">
    <!-- Generator: Sketch 40.3 (33839) - http://www.bohemiancoding.com/sketch -->
    <title>chrome</title>
    <desc>Created with Sketch.</desc>
    <defs></defs>
    <g id="Page-1" stroke="none" stroke-width="1" fill="none" fill-rule="evenodd">
        <g id="chrome">
            <path d="M111.972,36.873 C118.234,52.537 117.511,71.171 108.331,87.016 C96.212,108.036 72.818,118.526 50.185,115.213 L76.919,68.947 C82.796,58.746 79.304,45.679 69.123,39.823 C65.801,37.864 62.123,36.873 58.517,36.873 L111.972,36.873" id="Fill-3" fill="#F9CE3E"></path>
            <path d="M111.972,36.873 L58.517,36.873 C51.172,36.873 44.02,40.803 40.086,47.639 C36.237,54.262 36.401,62.228 39.862,68.543 L13.338,22.638 C30.738,0.564 62.203,-6.061 87.246,8.399 C98.938,15.13 107.352,25.27 111.972,36.873" id="Fill-4" fill="#D64543"></path>
            <path d="M76.919,68.969 L50.185,115.256 C43.18,114.245 36.259,111.902 29.751,108.164 C2.205,92.266 -7.213,57.085 8.674,29.57 C10.095,27.089 11.656,24.82 13.338,22.659 L39.862,68.586 L40.086,68.969 C41.885,72.1 44.522,74.826 47.882,76.741 C58.04,82.62 71.052,79.127 76.919,68.969" id="Fill-5" fill="#4DAF4C"></path>
            <path d="M71.053,36.205 C83.29,43.243 87.486,58.858 80.422,71.119 C73.371,83.328 57.732,87.526 45.522,80.461 C41.484,78.158 38.315,74.882 36.153,71.119 L35.884,70.659 C31.723,63.069 31.526,53.546 36.153,45.586 C40.881,37.37 49.477,32.749 58.305,32.749 C62.639,32.749 67.06,33.85 71.053,36.205" id="Fill-6" fill="#4889B4"></path>
            <path d="M58.305,34.693 C49.891,34.693 42.049,39.239 37.837,46.555 C33.726,53.631 33.632,62.506 37.589,69.724 L37.832,70.139 C39.902,73.742 42.892,76.723 46.485,78.772 C50.079,80.853 54.151,81.949 58.271,81.949 C66.691,81.949 74.534,77.426 78.739,70.146 C81.894,64.669 82.733,58.297 81.098,52.208 C79.463,46.12 75.552,41.035 70.083,37.89 C66.53,35.795 62.465,34.693 58.305,34.693 L58.305,34.693 Z M58.271,85.837 C53.469,85.837 48.724,84.56 44.549,82.144 C40.366,79.758 36.875,76.278 34.466,72.087 L34.204,71.638 C29.572,63.187 29.683,52.848 34.471,44.609 C39.371,36.097 48.504,30.805 58.305,30.805 C63.159,30.805 67.909,32.093 72.04,34.53 C78.392,38.184 82.948,44.107 84.853,51.199 C86.757,58.292 85.782,65.71 82.107,72.089 C77.209,80.57 68.076,85.837 58.271,85.837 L58.271,85.837 Z" id="Fill-7" fill="#FFFFFF"></path>
        </g>
    </g>
</svg>