<?xml version="1.0" encoding="UTF-8" standalone="no"?>
<svg width="116px" height="116px" viewBox="0 0 116 116" version="1.1" xmlns="http://www.w3.org/2000/svg" xmlns:xlink="http://www.w3.org/1999/xlink">
    <!-- Generator: Sketch 40.3 (33839) - http://www.bohemiancoding.com/sketch -->
    <title>firefox</title>
    <desc>Created with Sketch.</desc>
    <defs></defs>
    <g id="Page-1" stroke="none" stroke-width="1" fill="none" fill-rule="evenodd">
        <g id="firefox">
            <path d="M113.068,55.459 C113.068,25.151 88.345,0.582 57.847,0.582 C27.35,0.582 2.626,25.151 2.626,55.459 C2.626,85.765 27.35,110.336 57.847,110.336 C88.345,110.336 113.068,85.765 113.068,55.459" id="Fill-20" fill="#1B97D9"></path>
            <path d="M19.026,86.585 C18.937,86.571 18.775,86.445 18.552,86.219 C18.724,86.339 18.894,86.455 19.062,86.568 L19.026,86.585 L19.026,86.585 Z M114.237,46.286 C113.479,49.232 113.328,50.208 112.884,50.956 C112.883,50.836 112.853,47.676 111.854,43.216 C111.36,39.807 110.599,36.627 109.565,33.677 C109.812,34.987 109.96,36.096 110.031,37.084 C109.242,34.986 108.235,32.796 106.95,30.626 C106.682,29.589 105.638,26.519 101.858,21.529 C101.858,21.529 102.742,22.967 103.048,25.221 C96.841,18.127 77.266,8.734 60.75,8.942 C60.75,8.942 83.766,14.913 87.963,21.213 C87.963,21.213 83.053,18.387 77.25,19.192 C81.518,20.876 83.71,23.83 86.776,25.684 C89.365,27.321 91.977,29.33 94.07,31.7 C93.241,31.351 92.322,30.994 91.3,30.633 C91.635,30.756 93.42,31.456 95.078,32.928 C97.235,35.753 98.608,39.041 98.403,42.78 C97.238,40.965 96.422,39.672 93.968,37.661 C96.407,47.143 95.878,61.771 93.9,67.949 C93.332,64.273 92.612,62.437 91.5,61.57 C93.047,74.277 90.166,77.321 84.451,83.443 C85.534,79.705 85.969,76.644 85.723,74.231 C79.006,84.284 71.367,89.484 62.804,89.81 C59.419,89.782 56.222,89.269 53.215,88.292 L53.212,88.29 C48.801,86.812 44.799,84.29 41.243,80.703 C46.8,81.165 51.868,80.203 56.331,77.945 L63.645,73.202 C64.593,72.849 67.688,68.875 64.295,67.244 C60.638,65.347 56.818,65.644 52.836,68.163 C49.043,70.305 45.386,70.223 41.837,67.946 C39.506,66.35 37.258,64.208 35.091,61.527 L34.153,60.226 C33.164,57.402 35.15,56.111 37.263,55.786 C37.263,55.786 41.143,55.044 45.77,57.436 C46.436,52.748 45.336,49.82 43.943,47.98 C46.755,45.399 49.259,43.508 51.4,42.292 C52.289,41.823 52.825,41.118 53.059,40.198 C53.619,39.975 54.016,39.431 54.016,38.792 C54.016,38.781 54.013,38.77 54.013,38.76 C54.013,38.752 54.016,38.746 54.016,38.739 C54.016,38.346 53.851,37.992 53.588,37.739 C53.313,37.454 52.928,37.276 52.501,37.276 C52.115,37.276 51.768,37.424 51.5,37.661 C49.887,37.667 48.273,37.522 46.659,37.199 C45.819,36.954 44.736,36.305 43.435,35.059 L40.155,31.808 L39.105,30.997 C39.132,30.86 39.172,30.662 39.182,30.616 C39.642,28.151 40.401,26.037 41.484,24.222 L41.728,24.006 C42.813,22.218 44.898,20.294 47.959,18.236 C42.27,18.94 37.123,21.486 32.545,25.876 C28.752,24.493 24.255,24.791 19.08,26.769 C15.829,25.279 16.188,20.998 15.132,14.037 C10.987,18.1 6.455,25.361 6.591,35.845 C6.591,35.845 2.798,41.64 2.358,42.464 C0.695,45.582 0.175,47.442 0.089,49.631 C0.102,49.609 0.075,50.253 0.088,50.232 C0.103,50.685 0.162,51.122 0.278,51.53 C0.278,51.53 2.078,49.089 3.638,48.794 C3.293,48.986 1.606,55.106 1.2,58.547 C-0.047,69.844 3.124,81.005 10.763,92.03 C22.223,106.85 36.635,114.789 53.973,115.844 C71.313,116.874 86.104,110.481 98.323,96.718 C106.584,86.585 111.649,75.992 113.547,64.914 C115.445,57.301 115.726,51.813 114.237,46.286 L114.237,46.286 Z" id="Fill-21" fill="#ED613A"></path>
            <path d="M85.5,78.919 C85.785,77.151 85.869,75.585 85.731,74.231 C85.709,74.265 85.686,74.296 85.663,74.329 C85.472,76.02 85.074,77.915 84.459,80.036 C84.818,79.653 85.165,79.281 85.5,78.919" id="Fill-22" fill="#CE5235"></path>
            <path d="M37.271,55.786 C37.271,55.786 41.151,55.044 45.778,57.436 C46.016,55.762 46.021,54.322 45.876,53.066 C45.846,53.385 45.826,53.693 45.778,54.03 C41.151,51.638 37.271,52.38 37.271,52.38 C35.158,52.705 33.172,53.996 34.162,56.82 L34.443,57.21 C35.067,56.408 36.148,55.959 37.271,55.786" id="Fill-23" fill="#CE5235"></path>
            <path d="M18.561,82.813 C18.784,83.038 18.946,83.165 19.034,83.179 L19.07,83.161 C18.902,83.049 18.732,82.933 18.561,82.813" id="Fill-24" fill="#CFEB07"></path>
            <path d="M41.493,20.816 C40.41,22.631 39.651,24.744 39.19,27.21 C39.18,27.256 39.141,27.454 39.113,27.591 L39.811,28.129 C40.246,26.699 40.795,25.391 41.493,24.222 L41.737,24.006 C42.821,22.218 44.906,20.294 47.968,18.236 C46.072,18.47 44.242,18.929 42.468,19.572 C42.192,19.919 41.941,20.262 41.737,20.599 L41.493,20.816" id="Fill-25" fill="#CE5235"></path>
            <path d="M113.555,61.508 C111.658,72.585 106.593,83.179 98.331,93.311 C86.113,107.075 71.322,113.467 53.982,112.437 C36.644,111.383 22.231,103.444 10.772,88.624 C4.617,79.742 1.368,70.771 0.987,61.712 C0.607,71.929 3.846,82.036 10.772,92.03 C22.231,106.85 36.644,114.789 53.982,115.844 C71.322,116.874 86.113,110.481 98.331,96.718 C106.593,86.585 111.658,75.992 113.555,64.914 C114.818,59.849 115.347,55.732 115.133,51.911 C114.975,54.79 114.453,57.906 113.555,61.508" id="Fill-26" fill="#CE5235"></path>
            <path d="M2.353,49.427 C2.901,47.269 3.463,45.49 3.646,45.388 C2.086,45.683 0.287,48.124 0.287,48.124 C0.275,48.083 0.271,48.039 0.26,47.998 C0.17,48.538 0.119,49.074 0.098,49.631 C0.111,49.609 0.083,50.253 0.096,50.232 C0.112,50.685 0.171,51.122 0.287,51.53 C0.287,51.53 1.236,50.245 2.353,49.427" id="Fill-27" fill="#CE5235"></path>
            <path d="M87.972,17.807 C86.639,15.806 83.405,13.839 79.616,12.085 C73.47,10.117 66.903,8.865 60.758,8.942 C60.758,8.942 71.795,11.806 79.977,15.66 C84.514,15.827 87.972,17.807 87.972,17.807" id="Fill-28" fill="#CE5235"></path>
            <path d="M94.804,38.367 C94.55,38.141 94.276,37.907 93.976,37.661 C94.994,41.618 95.489,46.469 95.583,51.229 C95.67,46.962 95.439,42.429 94.804,38.367" id="Fill-29" fill="#CE5235"></path>
            <path d="M95.087,29.522 C93.428,28.05 91.644,27.35 91.308,27.226 C92.33,27.587 93.25,27.945 94.079,28.294 C91.986,25.924 89.374,23.915 86.784,22.278 C85.46,21.477 84.295,20.47 83.059,19.45 C81.374,19.09 79.377,18.898 77.258,19.192 C81.526,20.876 83.719,23.83 86.784,25.684 C89.374,27.321 91.986,29.33 94.079,31.7 C93.25,31.351 92.33,30.994 91.308,30.633 C91.644,30.756 93.428,31.456 95.087,32.928 C96.434,34.693 97.476,36.639 98.018,38.763 C98.147,38.961 98.276,39.163 98.411,39.373 C98.617,35.635 97.243,32.347 95.087,29.522" id="Fill-30" fill="#CE5235"></path>
            <path d="M91.843,61.882 C91.735,61.769 91.625,61.661 91.508,61.57 C91.695,63.102 91.814,64.487 91.874,65.761 C91.937,64.596 91.925,63.307 91.843,61.882" id="Fill-31" fill="#CE5235"></path>
        </g>
    </g>
</svg>