<?xml version="1.0" encoding="UTF-8" standalone="no"?>
<svg width="116px" height="116px" viewBox="0 0 116 116" version="1.1" xmlns="http://www.w3.org/2000/svg" xmlns:xlink="http://www.w3.org/1999/xlink">
    <!-- Generator: Sketch 40.3 (33839) - http://www.bohemiancoding.com/sketch -->
    <title>ie</title>
    <desc>Created with Sketch.</desc>
    <defs></defs>
    <g id="Page-1" stroke="none" stroke-width="1" fill="none" fill-rule="evenodd">
        <g id="ie">
            <path d="M115.263,58.266 C115.263,90.051 89.496,115.818 57.711,115.818 C25.926,115.818 0.159,90.051 0.159,58.266 C0.159,26.481 25.926,0.715 57.711,0.715 C89.496,0.715 115.263,26.481 115.263,58.266" id="Fill-32" fill="#429FEF"></path>
            <path d="M45.699,53.364 L67.892,53.364 C66.61,46.761 62.992,43.459 57.036,43.459 C53.192,43.459 50.245,44.661 48.197,47.061 C46.659,48.862 45.826,50.964 45.699,53.364 L45.699,53.364 Z M83.218,62.356 L44.943,62.356 C45.354,70.756 49.697,74.954 57.975,74.954 C60.78,74.954 63.311,74.249 65.569,72.838 C67.688,71.621 68.989,70.179 69.468,68.511 L82.294,68.511 C78.395,79.667 70.117,85.245 57.462,85.245 C49.184,85.245 42.599,82.825 37.709,77.983 C32.818,73.143 30.372,66.844 30.372,59.086 C30.372,51.522 32.886,45.254 37.914,40.285 C42.942,35.317 49.459,32.832 57.462,32.832 C66.082,32.832 72.752,35.847 77.472,41.872 C81.848,47.387 83.765,54.215 83.218,62.356 L83.218,62.356 Z" id="Fill-33" fill="#FFFFFF"></path>
            <path d="M35.573,75.574 C31.804,76.321 28.904,75.896 27.421,74.094 C23.358,69.156 31.471,55.766 45.544,44.185 C59.616,32.605 74.318,27.221 78.382,32.159 C80.074,34.215 79.646,37.742 77.561,41.99 C77.662,42.118 77.757,42.25 77.855,42.379 C81.213,36.723 82.226,31.968 80.106,29.392 C75.739,24.085 59.75,30.028 44.392,42.666 C29.035,55.303 20.126,69.85 24.493,75.157 C26.41,77.486 30.574,77.636 35.933,76.015 C35.813,75.868 35.689,75.723 35.573,75.574" id="Fill-34" fill="#FFC637"></path>
        </g>
    </g>
</svg>