<?xml version="1.0" encoding="UTF-8" standalone="no"?>
<svg width="116px" height="116px" viewBox="0 0 116 116" version="1.1" xmlns="http://www.w3.org/2000/svg" xmlns:xlink="http://www.w3.org/1999/xlink">
    <!-- Generator: Sketch 40.3 (33839) - http://www.bohemiancoding.com/sketch -->
    <title>opera</title>
    <desc>Created with Sketch.</desc>
    <defs></defs>
    <g id="Page-1" stroke="none" stroke-width="1" fill="none" fill-rule="evenodd">
        <g id="opera">
            <path d="M115.35,58.266 C115.35,90.051 89.58,115.818 57.8,115.818 C26.01,115.818 0.245,90.051 0.245,58.266 C0.245,26.481 26.01,0.715 57.8,0.715 C89.58,0.715 115.35,26.481 115.35,58.266" id="Fill-18" fill="#F5F4F2"></path>
            <path d="M57.81,29.039 C69.26,29.039 71.59,43.828 71.59,57.257 C71.59,69.698 70.3,86.351 57.95,86.351 C45.6,86.351 44,69.536 44,57.095 C44,43.667 46.35,29.039 57.81,29.039 L57.81,29.039 Z M78.23,28.348 C72.61,24.752 65.65,22.766 57.81,22.766 C50.63,22.766 44.2,24.426 38.85,27.459 C28.55,33.24 22.211,44.061 22.211,57.928 C22.211,76.686 36.44,93.766 57.8,93.766 C79.15,93.766 93.38,76.686 93.38,57.928 C93.38,44.744 87.65,34.312 78.23,28.348 L78.23,28.348 Z" id="Fill-19" fill="#C7433A"></path>
        </g>
    </g>
</svg>