<?xml version="1.0" encoding="UTF-8" standalone="no"?>
<svg width="116px" height="125px" viewBox="0 0 116 125" version="1.1" xmlns="http://www.w3.org/2000/svg" xmlns:xlink="http://www.w3.org/1999/xlink">
    <!-- Generator: Sketch 40.3 (33839) - http://www.bohemiancoding.com/sketch -->
    <title>safari</title>
    <desc>Created with Sketch.</desc>
    <defs></defs>
    <g id="Page-1" stroke="none" stroke-width="1" fill="none" fill-rule="evenodd">
        <g id="safari">
            <path d="M108.974,60.77 C112.261,88.802 92.198,114.191 64.166,117.476 C36.133,120.76 10.746,100.7 7.459,72.666 C4.173,44.634 24.235,19.245 52.269,15.96 C80.302,12.675 105.689,32.738 108.974,60.77" id="Fill-8" fill="#79BDDC"></path>
            <path d="M58.284,9.17 L58.284,15.608 L58.284,9.17 C56.035,9.17 53.76,9.303 51.519,9.566 C36.253,11.355 22.597,18.982 13.068,31.041 C3.538,43.101 -0.725,58.15 1.064,73.415 C4.464,102.405 29.007,124.266 58.155,124.266 C60.399,124.266 62.674,124.133 64.915,123.87 C80.181,122.081 93.837,114.454 103.366,102.395 C112.896,90.335 117.159,75.286 115.369,60.02 C111.971,31.031 87.43,9.17 58.284,9.17 L58.284,9.17 Z M58.281,15.608 C83.847,15.606 105.925,34.757 108.974,60.77 C112.261,88.802 92.198,114.191 64.166,117.476 C62.147,117.712 60.139,117.828 58.155,117.828 C32.588,117.828 10.509,98.681 7.459,72.666 C4.173,44.634 24.235,19.245 52.269,15.96 C54.288,15.724 56.297,15.608 58.281,15.608 L58.281,15.608 Z" id="Fill-9" fill="#ECECEB"></path>
            <path d="M60.383,78.364 C54.182,79.536 48.211,75.48 47.016,69.284 C45.843,63.082 49.902,57.113 56.098,55.919 C62.297,54.748 68.267,58.803 69.461,64.998 C70.632,71.199 66.579,77.169 60.383,78.364 L60.383,78.364 Z M69.321,71.854 C69.669,71.038 69.918,70.178 70.079,69.292 L79.907,63.101 L68.446,60.768 C66.639,57.878 63.676,55.881 60.318,55.291 L54.148,45.515 L51.818,56.965 C51.067,57.44 50.369,57.984 49.748,58.603 L43.077,56.579 L47.374,61.979 C46.918,62.936 46.586,63.954 46.395,65.014 L36.663,71.166 L48.02,73.497 C49.823,76.391 52.784,78.393 56.141,78.989 L62.331,88.811 L64.661,77.319 C65.546,76.76 66.343,76.093 67.045,75.338 L73.701,77.359 L69.321,71.854 L69.321,71.854 Z" id="Fill-10" fill="#FFFFFF"></path>
            <polyline id="Fill-11" fill="#ED3C37" points="53.827 62.7 80.288 41.399 62.436 70.558 53.827 62.7"></polyline>
            <path d="M63.81,66.719 C63.81,63.524 61.22,60.933 58.025,60.933 C56.382,60.933 54.88,61.6 53.827,62.7 L35.97,91.856 L62.436,70.558 C63.322,69.541 63.81,68.172 63.81,66.719" id="Fill-13" fill="#F1F2F2"></path>
            <path d="M60.716,66.718 C60.716,68.099 59.597,69.218 58.216,69.218 C56.836,69.218 55.716,68.099 55.716,66.718 C55.716,65.337 56.836,64.218 58.216,64.218 C59.597,64.218 60.716,65.337 60.716,66.718" id="Fill-15" fill="#77B7CE"></path>
            <path d="M50.014,1.995 C49.778,1.995 49.538,2.013 49.301,2.048 C48.234,2.205 47.285,2.695 46.63,3.428 C46,4.133 45.719,4.98 45.842,5.811 C46.069,7.352 47.619,8.47 49.529,8.47 C49.764,8.47 50.004,8.453 50.24,8.418 C52.406,8.098 53.958,6.41 53.7,4.654 C53.472,3.113 51.922,1.995 50.014,1.995 L50.014,1.995 Z M49.529,9.563 C47.073,9.563 45.068,8.052 44.761,5.97 C44.59,4.812 44.965,3.65 45.815,2.7 C46.641,1.777 47.822,1.161 49.142,0.967 C49.431,0.924 49.724,0.902 50.014,0.902 C52.469,0.902 54.473,2.413 54.781,4.495 C55.127,6.846 53.162,9.092 50.399,9.499 C50.111,9.542 49.818,9.563 49.529,9.563 L49.529,9.563 Z" id="Fill-16" fill="#BBBEBB"></path>
            <path d="M47.722,11.945 L47.463,10.188 C47.222,8.553 48.363,7.018 49.998,6.777 C51.633,6.536 53.168,7.677 53.409,9.312 L53.668,11.069 C53.909,12.704 47.963,13.58 47.722,11.945" id="Fill-17" fill="#BBBEBB"></path>
        </g>
    </g>
</svg>